<?xml version="1.0" standalone="no"?>
<!DOCTYPE svg PUBLIC "-//W3C//DTD SVG 20010904//EN"
 "http://www.w3.org/TR/2001/REC-SVG-20010904/DTD/svg10.dtd">
<svg version="1.0" xmlns="http://www.w3.org/2000/svg"
 width="512.000000pt" height="512.000000pt" viewBox="0 0 512.000000 512.000000"
 preserveAspectRatio="xMidYMid meet">
<metadata>
Created by potrace 1.11, written by Peter Selinger 2001-2013
</metadata>
<g transform="translate(0.000000,512.000000) scale(0.100000,-0.100000)"
fill="#000000" stroke="none">
<path d="M2340 5114 c-567 -68 -996 -244 -1398 -573 -770 -631 -1105 -1650
-858 -2617 110 -432 326 -817 641 -1143 397 -411 897 -668 1475 -758 163 -25
567 -25 730 0 578 90 1078 347 1475 758 369 382 591 823 692 1374 15 83 18
153 18 405 0 252 -3 322 -18 405 -101 551 -323 992 -692 1374 -394 408 -896
667 -1465 756 -101 16 -516 29 -600 19z m555 -1043 c381 -71 704 -239 970
-506 180 -181 299 -356 383 -567 219 -550 141 -1155 -209 -1628 -84 -114 -241
-269 -302 -299 -108 -52 -78 -51 -1167 -51 -1109 0 -1073 -2 -1184 58 -28 15
-88 64 -133 109 -231 233 -392 533 -465 866 -19 88 -22 131 -22 322 0 188 3
235 22 320 48 224 133 424 259 615 94 141 299 351 443 452 236 167 527 280
829 324 138 19 433 12 576 -15z"/>
<path d="M2375 3949 c-268 -28 -540 -128 -778 -285 -130 -86 -337 -291 -424
-419 -180 -267 -272 -560 -273 -865 0 -268 64 -517 195 -750 105 -187 273
-383 375 -436 l55 -29 1040 0 1040 0 57 28 c116 57 320 313 422 527 89 189
134 373 143 585 42 973 -834 1750 -1852 1644z m335 -249 c366 -38 681 -183
922 -423 426 -427 474 -1055 115 -1529 -80 -107 -161 -162 -317 -216 -625
-217 -1708 -123 -2005 174 -55 54 -143 195 -187 296 -129 299 -129 608 1 907
113 263 369 518 652 650 258 120 544 169 819 141z"/>
<path d="M2440 3619 c-638 -44 -1149 -493 -1210 -1062 -26 -241 37 -483 186
-708 60 -91 111 -134 218 -185 233 -110 559 -166 971 -165 479 1 858 85 1014
226 88 80 209 293 250 444 115 418 -48 876 -412 1155 -291 222 -632 322 -1017
295z"/>
</g>
</svg>
